<?xml version="1.0" encoding="utf-8"?>
<!-- Generator: Adobe Illustrator 27.7.0, SVG Export Plug-In . SVG Version: 6.00 Build 0)  -->
<svg version="1.1" id="Layer_1" xmlns="http://www.w3.org/2000/svg" xmlns:xlink="http://www.w3.org/1999/xlink" x="0px" y="0px"
	 viewBox="0 0 1100.6 600.5" style="enable-background:new 0 0 1100.6 600.5;" xml:space="preserve">
<style type="text/css">
	.st0{fill:none;stroke:#FFFFFF;stroke-width:5;stroke-linecap:round;stroke-linejoin:round;stroke-miterlimit:10;}
	.st1{fill:none;stroke:#FFFFFF;stroke-width:2;stroke-linecap:round;stroke-linejoin:round;stroke-miterlimit:10;}
	.st2{fill:none;stroke:#2B95B6;stroke-width:4;stroke-linecap:round;stroke-linejoin:round;stroke-miterlimit:10;}
	.st3{fill:none;stroke:#2B95B6;stroke-width:2;stroke-linecap:round;stroke-linejoin:round;stroke-miterlimit:10;}
	.st4{fill:none;stroke:#FFFFFF;stroke-width:1.9998;stroke-linecap:round;stroke-linejoin:round;stroke-miterlimit:9.9994;}
	.st5{fill:none;stroke:#FFFFFF;stroke-width:2;stroke-linecap:round;stroke-linejoin:round;stroke-miterlimit:10.0004;}
	.st6{fill:none;stroke:#2B95B6;stroke-width:2;stroke-linecap:round;stroke-linejoin:round;stroke-miterlimit:10.0001;}
	.st7{fill:none;stroke:#FFFFFF;stroke-width:2;stroke-linecap:round;stroke-linejoin:round;stroke-miterlimit:10.0001;}
	.st8{fill:none;stroke:#FFFFFF;stroke-width:3;stroke-linecap:round;stroke-linejoin:round;stroke-miterlimit:10;}
	.st9{fill:none;stroke:#2B95B6;stroke-width:3;stroke-linecap:round;stroke-linejoin:round;stroke-miterlimit:10;}
	.st10{fill:#2B95B6;}
</style>
<path class="st0" d="M719.4,347.5c-1.2,5.4-1.7,7.1-3.3,12.3 M716.9,233.3c1.4,4.8,1.9,6.9,3,11.8"/>
<path class="st1" d="M752.2,325c-1.8-5.3-7.2-8-7.4-8.1"/>
<path id="svg-concept_00000152234300336260420100000006326256389905566614_" class="st2" d="M683.3,426.5
	c-40.9,57.4-107.3,94-183.1,94c-124.5,0-225.4-100.9-225.4-225.4S375.7,69.6,500.2,69.7c76.8,0,145.9,40.3,184.6,96"/>
<path class="st1" d="M736.8,321.5c2.1,0,3.8-0.6,4.9-1.6l0.9-0.9c1.9-1.8,4.3-4.1,4.2-7c-0.1-2-1.3-4-3.8-5.9
	c-2.9-2.3-5.2-3.4-7.2-3.4c-2.5,0-4,1.6-5.7,3.3c-0.2,0.2-0.3,0.4-0.5,0.5c-0.1,0.1-0.3,0.2-0.6,0.2c-1.1,0-3.8-1-10.2-7.3
	c-2.8-2.8-4.8-5.1-6-7s-1.6-3.3-1.1-3.8l0.5-0.5c1.5-1.5,3-2.9,3.2-5c0.3-2.2-0.7-4.6-3.4-7.9c-2-2.5-4.1-3.8-6.2-3.8
	c-2.8,0-5,2.3-6.8,4.2l-0.9,0.9c-1.1,1.1-1.6,2.8-1.6,5c0,2.1,0.6,4.6,1.6,7.3c2.3,6.1,6.8,12.6,12.7,18.5
	c4.5,4.5,9.5,8.3,14.3,10.8C729.6,320.3,733.6,321.5,736.8,321.5L736.8,321.5z M744.3,293.5c0-4.6-1.7-9.1-5.2-12.6s-8-5.2-12.6-5.2
	 M753.6,292.1c0-6.4-2.4-12.8-7.3-17.7c-4.9-4.9-11.3-7.3-17.7-7.3"/>
<circle class="st1" cx="703.8" cy="198" r="36.4"/>
<path class="st1" d="M685.7,187.2c0-1,0.8-1.7,1.7-1.7h32.8c1,0,1.7,0.8,1.7,1.7v21.6c0,1-0.8,1.7-1.7,1.7h-32.8
	c-1,0-1.7-0.8-1.7-1.7V187.2z"/>
<path class="st1" d="M720.2,185.5l-16.4,12.1l-16.4-12.1 M698.6,194.1l-12,15.5 M709,194.1l12.1,15.5"/>
<circle class="st1" cx="703.8" cy="395.3" r="36.4"/>
<path class="st1" d="M703.8,377.3v36 M685.8,395.3h36"/>
<circle id="svg-concept_00000012467647853880060190000009539409437867080861_" class="st3" cx="414.9" cy="171" r="32.7"/>
<circle class="st1" cx="412.5" cy="253.7" r="32.7"/>
<circle class="st1" cx="414.9" cy="336.4" r="32.7"/>
<circle class="st1" cx="414.9" cy="419.1" r="32.7"/>
<ellipse transform="matrix(0.5372 -0.8435 0.8435 0.5372 86.0661 498.9201)" class="st4" cx="497.7" cy="171" rx="32.7" ry="32.7"/>
<ellipse class="st5" cx="497.7" cy="253.6" rx="32.7" ry="32.7"/>
<ellipse id="svg-concept_00000155866079045367216100000009433348254021683378_" transform="matrix(0.6001 -0.7999 0.7999 0.6001 -69.1652 534.6131)" class="st6" cx="500.1" cy="336.5" rx="32.7" ry="32.7"/>
<ellipse transform="matrix(0.6001 -0.7999 0.7999 0.6001 -135.409 567.5212)" class="st7" cx="499.9" cy="419.2" rx="32.7" ry="32.7"/>
<circle class="st1" cx="582.9" cy="171" r="32.7"/>
<circle id="svg-concept_00000150824599179051846830000002272156880286052000_" class="st3" cx="585.4" cy="253.7" r="32.7"/>
<circle class="st1" cx="582.9" cy="336.4" r="32.7"/>
<circle class="st1" cx="582.9" cy="419.1" r="32.7"/>
<path class="st8" d="M419.4,187.1V155 M419.4,155h-9 M417.2,352.4v-32 M417.2,320.4h-8.8 M421.5,336.4h-13.1 M508,170.9V155
	 M492.2,171.1h15.9 M508,155h-15.4 M492.1,171.1v16 M492.1,187.1h15.5 M508,253.8v16 M492.2,253.6h15.9 M508,269.8h-15.4
	 M492.1,253.6v-15.9 M492.1,237.7h15.5 M508,320.4v32.1 M492.2,336.4H508 M508,352.5h-15.4 M492.2,352.5v-32.1 M492.2,320.4h15.4
	 M507.9,403v32.2 M507.9,435.2h-15.6 M491.9,435.2V403 M491.9,403h15.5 M593.3,187.1V155 M577.4,171.1h16 M593.3,155h-15.4
	 M577.3,187.1h15.5 M407,254.1V238 M422.7,254.1h-15.8 M422.8,238v31.4 M577.5,269.4V238 M593.2,254.1h-15.8 M593.2,269.4h-15.8
	 M593.3,254.1v15.3 M593.2,320.7v31.4 M577.5,336h15.8 M577.5,320.7h15.8 M577.4,336v-15.3"/>
<g>
	<path class="st8" d="M422.9,408.9l-4,20.4 M401.9,422.5h25.9 M401.9,415.5h25.9 M407.2,429.3l4-20.4"/>
</g>
<g>
	<path class="st8" d="M585.6,431.5v-24.9 M576.6,427.9l17.5-17.6 M576.8,410.3l17.6,17.6"/>
</g>
<g>
	<circle id="svg-concept_00000008868965056379148040000001656302845389007764_" class="st9" cx="725.1" cy="296" r="50.6"/>
	
		<animate  accumulate="none" additive="replace" attributeName="opacity" calcMode="linear" dur="1s" fill="remove" repeatCount="indefinite" restart="always" values="0;1;0">
		</animate>
</g>
<g>
	<path id="svg-ico" class="st10" d="M687.3,160.4c0,3.3-2.6,6-6,6c-3.3,0-6-2.6-6-6s2.6-6,6-6S687.3,157,687.3,160.4z"/>
	
		<animateTransform  accumulate="none" additive="replace" attributeName="transform" calcMode="linear" dur="5s" fill="remove" from="0 495 305" repeatCount="indefinite" restart="always" to="-285 510 295" type="rotate">
		</animateTransform>
</g>
</svg>
