<?xml version="1.0" encoding="utf-8"?>
<!-- Generator: Adobe Illustrator 27.8.1, SVG Export Plug-In . SVG Version: 6.00 Build 0)  -->
<svg version="1.1" id="Capa_1" xmlns="http://www.w3.org/2000/svg" xmlns:xlink="http://www.w3.org/1999/xlink" x="0px" y="0px"
	 viewBox="0 0 32 32" style="enable-background:new 0 0 32 32;" xml:space="preserve">
<style type="text/css">
	.st0{fill:#FFFFFF;}
	.st1{fill:#2B95B6;}
</style>
<path class="st0" d="M11.6,9C11.6,9,11.6,9,11.6,9L9.7,8.8c-0.1,0-0.2-0.1-0.3-0.2S9.3,8.4,9.4,8.3l0.2-1.2c0-0.1,0.1-0.2,0.2-0.3
	l0.9-0.5l0.1-0.6l-0.1-0.5c-0.1-0.2,0.1-0.5,0.3-0.5c0.2-0.1,0.5,0.1,0.5,0.3l0.1,0.6c0,0.1,0,0.1,0,0.2l-0.1,0.9
	c0,0.1-0.1,0.2-0.2,0.3l-0.9,0.5L10.3,8l1.3,0.1l1.4-0.8l0.8-0.8c-0.1-0.2-0.2-0.4-0.2-0.6c0-0.2,0.1-0.5,0.6-0.8
	c0.7-0.4,1-0.8,1-0.8c0.1-0.2,0.4-0.2,0.6-0.1s0.2,0.4,0.1,0.6c0,0-0.5,0.6-1.3,1.1c-0.1,0-0.1,0.1-0.1,0.1c0,0,0.1,0.2,0.2,0.2
	c0.1,0.1,0.1,0.2,0.2,0.3c0,0.1,0,0.2-0.1,0.3L13.5,8c0,0-0.1,0.1-0.1,0.1L11.8,9C11.8,9,11.7,9,11.6,9L11.6,9z"/>
<path class="st0" d="M4.1,15.3c-0.2,0-0.3-0.1-0.4-0.3c-0.1-0.2,0-0.5,0.2-0.6l1.7-0.7c0.1,0,0.1,0,0.2,0c0.1,0,0.5-0.2,1-0.4l0.3-3
	c0-0.1,0.1-0.2,0.2-0.3l0.1-0.1V7.3c0-0.2,0.2-0.4,0.4-0.4S8.2,7,8.2,7.3v3c0,0.1-0.1,0.3-0.2,0.4l-0.2,0.1l-0.3,3
	c0,0.2-0.1,0.3-0.3,0.4c-0.9,0.4-1.3,0.5-1.4,0.5l-1.6,0.7C4.2,15.3,4.1,15.3,4.1,15.3L4.1,15.3z"/>
<path class="st0" d="M13.6,27.4c-0.1,0-0.3-0.1-0.3-0.2l-1.2-1.5l-1.3-0.6c0,0-0.1,0-0.1-0.1l-0.3-0.3l-0.8-0.9
	c-0.1-0.1-0.1-0.2-0.1-0.3v-0.9c0-0.1,0-0.2,0.1-0.2c0.1-0.2,0.3-0.4,0.3-0.5c0-0.1,0-0.2,0-0.3l-0.3-0.1l-1.1-0.6H8.2
	c-0.1,0-0.2,0-0.3-0.1l-1.2-1.4c-0.1-0.1-0.1-0.3-0.1-0.5l0,0l-0.7-0.6l-1,0.4c-0.2,0.1-0.5,0-0.6-0.2c-0.1-0.2,0-0.5,0.2-0.6
	l1.2-0.5c0.1-0.1,0.3,0,0.4,0.1l1.2,1c0.2,0.1,0.2,0.4,0.1,0.6l0,0.1l0.9,1h0.1c0.1,0,0.1,0,0.2,0.1l1.8,1c0.2,0.1,0.3,0.3,0.2,0.5
	c0,0.1,0,0.2,0,0.2c0.1,0.1,0.2,0.3-0.4,1.1v0.6l0.9,1l1.3,0.7c0.1,0,0.1,0.1,0.1,0.1l1.2,1.6c0.1,0.2,0.1,0.5-0.1,0.6
	C13.8,27.4,13.7,27.4,13.6,27.4L13.6,27.4z"/>
<path class="st0" d="M18.8,25.4c-0.1,0-0.2,0-0.3-0.1l-1.1-1.1c-0.1-0.1-0.1-0.1-0.1-0.2L17,22.7c0-0.2,0-0.4,0.2-0.5l0.3-0.1
	l0.4-0.8c0-0.1,0.1-0.2,0.1-0.3l-0.5-0.5c-0.1-0.1-0.1-0.2-0.1-0.3l-0.1-1.2l-0.5-0.2l-1,0.6c-0.2,0.1-0.4,0.1-0.5-0.1l-1-1.2
	c-0.1-0.1-0.1-0.2-0.1-0.2L14,16.7c0-0.1,0-0.1,0-0.2l1.2-2.3l0.9-2.1c0-0.1,0.1-0.1,0.1-0.2c0,0,0.8-0.6,1.1-0.9
	c0.2-0.1,0.5-0.7,0.6-1.1c0-0.1,0.1-0.2,0.2-0.2l2.1-1.1l-0.3-0.7c0-0.1,0-0.3,0-0.4c1-1.5,1.2-1.7,1.6-1.5c0.2,0.1,0.3,0.4,0.2,0.6
	c0,0.1-0.1,0.2-0.2,0.2c-0.1,0.1-0.4,0.6-0.7,1l0.3,0.8c0.1,0.2,0,0.4-0.1,0.5l-0.3,0.2l-2,1.1c-0.1,0.3-0.5,1-0.8,1.3
	c-0.3,0.2-0.8,0.6-1,0.8l-0.9,2l-1.1,2.3l0.1,1l0.7,0.9l0.9-0.5c0.1-0.1,0.3-0.1,0.4,0l0.9,0.4c0.1,0.1,0.2,0.2,0.2,0.4l0.1,1.3
	l0.6,0.6c0.1,0.1,0.2,0.3,0.1,0.4c0,0-0.2,0.5-0.2,0.6l-0.4,0.9c0,0.1-0.1,0.2-0.2,0.2l-0.1,0.1l0.2,0.8l0.8,0.8
	c0.3-0.2,0.6-0.4,0.6-0.5c0.1-0.1,0.4-0.9,0.7-1.6c0,0,0-0.1,0.1-0.1l1.6-1.6l0.8-1.1l0.6-1.4L23,17.5L22.6,17
	c-0.1-0.1-0.1-0.4,0-0.5l0.3-0.6c0,0,0-0.1,0.1-0.1c0.9-0.8,1.1-0.7,1.2-0.7s0.3,0.2,0.3,0.3c0,0.1,0.2,0.7,0.3,1.2l0.5-0.1l0-0.1
	c0-0.2,0.2-0.3,0.3-0.3l1-0.2c0.2-0.1,0.5,0.1,0.5,0.3c0.1,0.2-0.1,0.5-0.3,0.5l-0.7,0.1l0,0.1c0,0.2-0.1,0.3-0.3,0.3l-1.2,0.3
	c-0.1,0-0.2,0-0.3,0s-0.2-0.2-0.2-0.3c-0.1-0.3-0.2-0.8-0.3-1.1c-0.1,0.1-0.2,0.1-0.3,0.2l-0.1,0.2l0.3,0.3c0,0,0.1,0.1,0.1,0.1
	l0.3,1c0,0.1,0,0.2,0,0.3l-0.7,1.6c0,0,0,0.1,0,0.1l-0.9,1.2l-1.6,1.6c-0.5,1.1-0.7,1.5-0.7,1.6c0,0.1-0.2,0.3-1.2,0.9
	C18.9,25.4,18.8,25.4,18.8,25.4L18.8,25.4z"/>
<path class="st0" d="M15.7,27.9C9,27.9,3.6,22.5,3.6,15.8S9,3.8,15.7,3.8s12.1,5.4,12.1,12.1S22.3,27.9,15.7,27.9z M15.7,4.6
	c-6.2,0-11.2,5-11.2,11.2c0,6.2,5,11.2,11.2,11.2s11.2-5,11.2-11.2C26.9,9.7,21.9,4.6,15.7,4.6z"/>
<path id="svg-ico" class="st1" d="M3.4,25.8c-1.4,0-2.5-0.4-3-1.2c-0.9-1.4,0.4-4,3.5-6.9c0.2-0.2,0.4-0.2,0.6,0s0.2,0.4,0,0.6
	c-3,2.9-3.8,5-3.3,5.8c1.1,1.8,8.3,0.4,17-4.6c6.7-3.9,11.9-8.5,12.6-11.3c0.1-0.5,0.1-0.8-0.1-1.1C30,6,27.2,6,23.3,7.3
	c-0.2,0.1-0.5-0.1-0.5-0.3c-0.1-0.2,0-0.5,0.3-0.5c4.4-1.4,7.5-1.3,8.4,0.2c0.3,0.5,0.3,1.1,0.2,1.8c-0.8,3-6,7.8-13,11.8
	C13.2,23.4,7.1,25.8,3.4,25.8L3.4,25.8z"/>
</svg>
