<?xml version="1.0" encoding="utf-8"?>
<!-- Generator: Adobe Illustrator 27.7.0, SVG Export Plug-In . SVG Version: 6.00 Build 0)  -->
<svg version="1.1" id="Capa_1" xmlns="http://www.w3.org/2000/svg" xmlns:xlink="http://www.w3.org/1999/xlink" x="0px" y="0px"
	 viewBox="0 0 32 32" style="enable-background:new 0 0 32 32;" xml:space="preserve">
<style type="text/css">
	.st0{fill:#FFFFFF;}
</style>
<path class="st0" d="M22.8,31.4L22.8,31.4C22.8,31.4,22.8,31.4,22.8,31.4C22.8,31.4,22.8,31.4,22.8,31.4
	C22.8,31.4,22.8,31.4,22.8,31.4C22.8,31.3,22.8,31.3,22.8,31.4C22.8,31.3,22.8,31.3,22.8,31.4c0.1-0.1,0.1-0.1,0.1-0.1c0,0,0,0,0,0
	s0,0,0,0c0,0,0,0,0,0c0,0,0,0,0,0v0c0,0,0,0,0,0l0,0c0,0,0,0,0,0c0,0,0,0,0,0c0,0,0,0,0,0c0,0,0,0,0,0c0,0,0,0,0,0s0,0,0,0
	l-5.5-19.4c1.4-0.4,2.3-1.7,2.3-3.2c0-1.8-1.5-3.3-3.3-3.3c-1.8,0-3.3,1.5-3.3,3.3c0,1.5,1,2.8,2.4,3.2l-5.5,19.3c0,0,0,0,0,0
	s0,0,0,0s0,0,0,0s0,0,0,0c0,0,0,0,0,0s0,0,0,0v0c0,0,0,0,0,0s0,0,0,0c0,0,0,0,0,0c0,0,0,0,0,0l0,0c0,0.1,0.1,0.2,0.1,0.2
	c0,0,0,0,0,0c0,0,0,0,0,0c0,0,0,0,0,0c0,0,0,0,0,0c0,0,0,0,0,0c0,0,0,0,0,0c0,0,0,0,0,0s0,0,0,0h0c0,0,0,0,0,0c0,0,0,0,0,0
	c0,0,0,0,0,0c0,0,0,0,0.1,0h12c0,0,0,0,0,0c0,0,0,0,0,0c0,0,0,0,0,0h0h0c0,0,0,0,0,0c0,0,0,0,0,0s0,0,0,0c0,0,0,0,0,0c0,0,0,0,0,0
	s0,0,0,0C22.7,31.5,22.7,31.5,22.8,31.4C22.7,31.5,22.7,31.5,22.8,31.4C22.7,31.5,22.7,31.5,22.8,31.4
	C22.7,31.5,22.7,31.5,22.8,31.4C22.8,31.5,22.8,31.4,22.8,31.4C22.8,31.4,22.8,31.4,22.8,31.4C22.8,31.4,22.8,31.4,22.8,31.4
	L22.8,31.4z M13.4,22.5h6.2l2.3,8.2H11L13.4,22.5z M13.9,8.5c0-1.4,1.1-2.5,2.5-2.5s2.5,1.1,2.5,2.5S17.8,11,16.4,11
	S13.9,9.9,13.9,8.5z M16.4,11.8c0,0,0.1,0,0.1,0l2.8,9.9h-5.8L16.4,11.8C16.4,11.8,16.4,11.8,16.4,11.8L16.4,11.8z"/>
<path id="svg-ico" class="st0" d="M11.9,13.7c0.1,0,0.2,0,0.3-0.1c0.2-0.2,0.2-0.4,0-0.6c-2.3-2.3-2.3-6.4,0-8.7
	c0.2-0.2,0.2-0.4,0-0.6s-0.4-0.2-0.6,0c-2.7,2.7-2.7,7.2,0,9.9C11.7,13.7,11.8,13.7,11.9,13.7z"/>
<path id="svg-ico_00000112593216951130643090000010950843538071383220_" class="st0" d="M9.2,0.7C9,0.5,8.7,0.5,8.6,0.7
	c-4.5,4.5-4.5,11.4,0,15.9c0.1,0.1,0.2,0.1,0.3,0.1s0.2,0,0.3-0.1c0.2-0.2,0.2-0.4,0-0.6C5,11.9,5,5.4,9.2,1.3
	C9.3,1.1,9.3,0.9,9.2,0.7z"/>
<path id="svg-ico_00000060029239930186992120000016481270709745633973_" class="st0" d="M20.5,3.7c-0.2,0.2-0.2,0.4,0,0.6
	c2.3,2.3,2.3,6.4,0,8.7c-0.2,0.2-0.2,0.4,0,0.6c0.1,0.1,0.2,0.1,0.3,0.1s0.2,0,0.3-0.1c2.7-2.7,2.7-7.2,0-9.9
	C20.9,3.5,20.6,3.5,20.5,3.7L20.5,3.7z"/>
<path id="svg-ico_00000086688710166478529210000004433949702944175762_" class="st0" d="M24.1,0.7c-0.2-0.2-0.4-0.2-0.6,0
	s-0.2,0.4,0,0.6c4.1,4.1,4.1,10.6,0,14.7c-0.2,0.2-0.2,0.4,0,0.6c0.1,0.1,0.2,0.1,0.3,0.1s0.2,0,0.3-0.1
	C28.5,12.1,28.5,5.2,24.1,0.7L24.1,0.7z"/>
</svg>
