<?xml version="1.0" encoding="utf-8"?>
<!-- Generator: Adobe Illustrator 27.8.1, SVG Export Plug-In . SVG Version: 6.00 Build 0)  -->
<svg version="1.1" id="Capa_1" xmlns="http://www.w3.org/2000/svg" xmlns:xlink="http://www.w3.org/1999/xlink" x="0px" y="0px"
	 viewBox="0 0 32 32" style="enable-background:new 0 0 32 32;" xml:space="preserve">
<style type="text/css">
	.st0{fill:#FFFFFF;}
	.st1{fill:#2B95B6;}
</style>
<path class="st0" d="M24.6,31.8H7.4c-0.5,0-1-0.4-1-1V1c0-0.5,0.4-1,1-1h17.2c0.5,0,1,0.4,1,1v29.8C25.6,31.4,25.1,31.8,24.6,31.8z
	 M7.4,0.9C7.4,0.9,7.3,1,7.3,1v29.8c0,0.1,0.1,0.1,0.1,0.1h17.2c0.1,0,0.1-0.1,0.1-0.1V1c0-0.1-0.1-0.1-0.1-0.1
	C24.6,0.9,7.4,0.9,7.4,0.9z"/>
<path id="svg-ico" class="st1" d="M17.3,3.7h-2.6c-0.2,0-0.4-0.2-0.4-0.4s0.2-0.4,0.4-0.4h2.6c0.2,0,0.4,0.2,0.4,0.4
	S17.5,3.7,17.3,3.7z"/>
<path id="svg-ico_00000034089010586817037370000016473644744590766250_" class="st1" d="M16,29.1c-0.9,0-1.7-0.8-1.7-1.7
	s0.8-1.7,1.7-1.7s1.7,0.8,1.7,1.7S16.9,29.1,16,29.1L16,29.1z M16,26.5c-0.5,0-0.9,0.4-0.9,0.9s0.4,0.9,0.9,0.9s0.9-0.4,0.9-0.9
	C16.9,26.9,16.5,26.5,16,26.5z"/>
</svg>
