<?xml version="1.0" encoding="utf-8"?>
<!-- Generator: Adobe Illustrator 27.8.1, SVG Export Plug-In . SVG Version: 6.00 Build 0)  -->
<svg version="1.1" id="Capa_1" xmlns="http://www.w3.org/2000/svg" xmlns:xlink="http://www.w3.org/1999/xlink" x="0px" y="0px"
	 viewBox="0 0 32 32" style="enable-background:new 0 0 32 32;" xml:space="preserve">
<style type="text/css">
	.st0{fill:#FFFFFF;}
	.st1{fill:#2B95B6;}
</style>
<path class="st0" d="M31.3,25.2H0.7c-0.2,0-0.4-0.2-0.4-0.4V19c0-0.2,0.2-0.4,0.4-0.4s0.4,0.2,0.4,0.4v5.4h29.7V19
	c0-0.2,0.2-0.4,0.4-0.4s0.4,0.2,0.4,0.4v5.8C31.7,25.1,31.5,25.2,31.3,25.2z"/>
<path class="st0" d="M16,30.7c-0.2,0-0.4-0.2-0.4-0.4V26c0-0.2,0.2-0.4,0.4-0.4c0.2,0,0.4,0.2,0.4,0.4v4.2
	C16.4,30.5,16.2,30.7,16,30.7z"/>
<path class="st0" d="M23.5,30.7H8.5c-0.2,0-0.4-0.2-0.4-0.4s0.2-0.4,0.4-0.4h15c0.2,0,0.4,0.2,0.4,0.4S23.7,30.7,23.5,30.7z"/>
<path id="svg-ico" class="st1" d="M31.3,19.4H0.7c-0.2,0-0.4-0.2-0.4-0.4V2.7c0-0.2,0.2-0.4,0.4-0.4h30.6c0.2,0,0.4,0.2,0.4,0.4V19
	C31.7,19.2,31.5,19.4,31.3,19.4z M1.1,18.6h29.7V3.1H1.1C1.1,3.1,1.1,18.6,1.1,18.6z"/>
</svg>
