<?xml version="1.0" encoding="utf-8"?>
<!-- Generator: Adobe Illustrator 27.8.1, SVG Export Plug-In . SVG Version: 6.00 Build 0)  -->
<svg version="1.1" id="Capa_1" xmlns="http://www.w3.org/2000/svg" xmlns:xlink="http://www.w3.org/1999/xlink" x="0px" y="0px"
	 viewBox="0 0 32 32" style="enable-background:new 0 0 32 32;" xml:space="preserve">
<style type="text/css">
	.st0{fill:#FFFFFF;}
	.st1{fill:#2B95B6;}
</style>
<path class="st0" d="M16.3,24.9c6.8,0,12.3-5.5,12.3-12.3c0-6.8-5.5-12.4-12.3-12.4S3.9,5.7,3.9,12.5l0,0l0,0l0,0
	C3.9,19.3,9.5,24.9,16.3,24.9z M6.8,6c0.9,0.6,1.9,1.2,3,1.6C9.5,9,9.3,10.5,9.2,12.1H4.8C4.9,9.8,5.6,7.8,6.8,6z M27.7,12.1h-4.5
	c0-1.6-0.2-3.1-0.6-4.5c1.1-0.4,2.1-0.9,3-1.6C26.9,7.7,27.6,9.8,27.7,12.1z M25.7,19c-0.9-0.6-1.9-1.1-3-1.6
	c0.4-1.4,0.5-2.9,0.6-4.5h4.5C27.6,15.2,26.9,17.3,25.7,19L25.7,19z M15.8,16.3c-1.8,0-3.6,0.3-5.2,0.9c-0.3-1.3-0.5-2.7-0.5-4.2
	h5.7L15.8,16.3L15.8,16.3z M15.8,17.2V24c-2.1-0.3-4-2.6-5-5.9C12.4,17.5,14.1,17.2,15.8,17.2z M16.7,24v-6.8c1.7,0,3.4,0.3,5,0.8
	C20.7,21.4,18.8,23.7,16.7,24z M16.7,16.3V13h5.7c0,1.5-0.2,2.9-0.5,4.2C20.3,16.7,18.5,16.4,16.7,16.3L16.7,16.3z M22.4,12.1h-5.7
	V8.7c1.8,0,3.6-0.3,5.2-0.9C22.2,9.2,22.4,10.6,22.4,12.1z M16.7,7.9V1.1c2.1,0.3,4,2.6,5,5.9C20.1,7.5,18.4,7.8,16.7,7.9L16.7,7.9z
	 M15.8,1.1v6.8c-1.7,0-3.4-0.3-5-0.8C11.8,3.7,13.7,1.4,15.8,1.1z M15.8,8.7v3.4h-5.7c0-1.5,0.2-2.9,0.5-4.2
	C12.2,8.4,14,8.7,15.8,8.7L15.8,8.7z M9.2,13c0,1.6,0.2,3.1,0.6,4.5c-1.1,0.4-2.1,1-3,1.6c-1.2-1.7-1.9-3.8-2-6.1L9.2,13L9.2,13z
	 M7.3,19.7c0.8-0.6,1.7-1,2.7-1.4c0.7,2.3,1.8,4.1,3.1,5.3C10.8,22.9,8.8,21.6,7.3,19.7L7.3,19.7z M19.4,23.6c1.3-1.1,2.4-3,3.1-5.3
	c1,0.4,1.9,0.9,2.7,1.4C23.7,21.6,21.7,22.9,19.4,23.6L19.4,23.6z M25.2,5.3c-0.8,0.6-1.7,1-2.7,1.4c-0.7-2.3-1.8-4.1-3.1-5.3
	C21.7,2.1,23.7,3.5,25.2,5.3z M13.1,1.5c-1.3,1.2-2.4,3-3.1,5.3c-1-0.4-1.9-0.9-2.7-1.4C8.8,3.5,10.8,2.1,13.1,1.5L13.1,1.5z"/>
<path id="svg-ico" class="st1" d="M26.1,28.3c-0.8,0-1.5,0.6-1.7,1.3h-6.5c-0.2-0.6-0.6-1.1-1.2-1.2v-2.2c0-0.2-0.2-0.4-0.4-0.4
	s-0.4,0.2-0.4,0.4v2.2c-0.6,0.2-1.1,0.6-1.2,1.2H8.1c-0.2-0.8-0.9-1.3-1.7-1.3c-1,0-1.7,0.8-1.7,1.7s0.8,1.7,1.7,1.7
	c0.8,0,1.5-0.6,1.7-1.3h6.5c0.2,0.8,0.9,1.3,1.7,1.3s1.5-0.6,1.7-1.3h6.5c0.2,0.8,0.9,1.3,1.7,1.3c1,0,1.7-0.8,1.7-1.7
	C27.8,29.1,27,28.3,26.1,28.3L26.1,28.3z M6.4,30.9c-0.5,0-0.9-0.4-0.9-0.9c0-0.5,0.4-0.9,0.9-0.9c0.5,0,0.8,0.4,0.9,0.8
	c0,0,0,0,0,0s0,0,0,0C7.2,30.6,6.9,30.9,6.4,30.9z M16.3,30.9c-0.5,0-0.9-0.4-0.9-0.9c0-0.5,0.4-0.9,0.9-0.9s0.9,0.4,0.9,0.9
	C17.1,30.6,16.7,30.9,16.3,30.9z M26.1,30.9c-0.4,0-0.8-0.3-0.9-0.7c0,0,0-0.1,0-0.1s0-0.1,0-0.1c0.1-0.4,0.4-0.7,0.9-0.7
	c0.5,0,0.9,0.4,0.9,0.9C26.9,30.6,26.6,30.9,26.1,30.9L26.1,30.9z"/>
</svg>
